<svg width="164" height="292" viewBox="0 0 164 292" fill="none" xmlns="http://www.w3.org/2000/svg">
<g opacity="0.1">
<path d="M225.473 279.561C224.092 280.381 222.697 281.18 221.288 281.958C222.175 280.565 223.71 279.624 225.473 279.561Z" fill="#1A1A1A"/>
<path d="M260.882 250.778C258.647 253.219 256.334 255.587 253.948 257.881C252.319 257.025 251.2 255.325 251.176 253.356C251.142 250.496 253.432 248.15 256.292 248.116C258.261 248.092 259.987 249.171 260.882 250.778Z" fill="#1A1A1A"/>
<path d="M284.167 217.549C283.423 218.976 282.658 220.39 281.872 221.79C281.892 220.026 282.796 218.469 284.167 217.549Z" fill="#1A1A1A"/>
<path d="M74.6149 283.721C73.1881 282.977 71.7741 282.212 70.3735 281.426C72.1379 281.446 73.6947 282.35 74.6149 283.721Z" fill="#1A1A1A"/>
<path d="M41.3854 260.436C42.9932 259.541 44.0718 257.815 44.0481 255.846C44.0137 252.986 41.6675 250.696 38.8077 250.73C36.8385 250.754 35.1392 251.874 34.2831 253.503C36.5765 255.888 38.9452 258.201 41.3854 260.436Z" fill="#1A1A1A"/>
<path d="M12.6025 225.027C12.5402 223.264 11.5985 221.729 10.2064 220.842C10.9841 222.251 11.7829 223.646 12.6025 225.027Z" fill="#1A1A1A"/>
<path d="M8.4432 74.1691C9.81352 73.2489 10.7181 71.6921 10.738 69.9278C9.95186 71.3284 9.18675 72.7423 8.4432 74.1691Z" fill="#1A1A1A"/>
<path d="M31.7278 40.9397C32.6229 42.5474 34.3485 43.626 36.3177 43.6024C39.1776 43.568 41.468 41.2218 41.4337 38.3619C41.41 36.3927 40.2902 34.6935 38.6614 33.8373C36.2756 36.1307 33.9632 38.4995 31.7278 40.9397Z" fill="#1A1A1A"/>
<path d="M67.1366 12.1568C68.8999 12.0944 70.4345 11.1527 71.3215 9.76063C69.913 10.5383 68.5178 11.3371 67.1366 12.1568Z" fill="#1A1A1A"/>
<path d="M285.618 102.753C282.758 102.787 280.412 100.497 280.378 97.6368C280.343 94.777 282.634 92.4308 285.494 92.3964C288.354 92.362 290.7 94.6525 290.734 97.5123C290.769 100.372 288.478 102.718 285.618 102.753Z" fill="#1A1A1A"/>
<path d="M285.992 133.822C283.132 133.856 280.786 131.566 280.751 128.706C280.717 125.846 283.007 123.5 285.867 123.466C288.727 123.431 291.073 125.722 291.108 128.582C291.142 131.441 288.852 133.788 285.992 133.822Z" fill="#1A1A1A"/>
<path d="M286.365 164.891C283.505 164.926 281.159 162.635 281.125 159.775C281.09 156.915 283.381 154.569 286.241 154.535C289.101 154.5 291.447 156.791 291.481 159.651C291.515 162.511 289.225 164.857 286.365 164.891Z" fill="#1A1A1A"/>
<path d="M286.739 195.96C283.879 195.995 281.533 193.704 281.498 190.844C281.464 187.984 283.754 185.638 286.614 185.604C289.474 185.57 291.82 187.86 291.855 190.72C291.889 193.58 289.598 195.926 286.739 195.96Z" fill="#1A1A1A"/>
<path d="M254.175 72.0571C251.316 72.0915 248.969 69.801 248.935 66.9411C248.901 64.0813 251.191 61.7351 254.051 61.7007C256.911 61.6663 259.257 63.9568 259.291 66.8166C259.326 69.6765 257.035 72.0227 254.175 72.0571Z" fill="#1A1A1A"/>
<path d="M254.549 103.126C251.689 103.161 249.343 100.87 249.309 98.0103C249.274 95.1505 251.565 92.8043 254.424 92.7699C257.284 92.7355 259.631 95.026 259.665 97.8858C259.699 100.746 257.409 103.092 254.549 103.126Z" fill="#1A1A1A"/>
<path d="M254.922 134.195C252.063 134.23 249.716 131.939 249.682 129.08C249.648 126.22 251.938 123.873 254.798 123.839C257.658 123.805 260.004 126.095 260.038 128.955C260.073 131.815 257.782 134.161 254.922 134.195Z" fill="#1A1A1A"/>
<path d="M255.296 165.265C252.436 165.299 250.09 163.009 250.056 160.149C250.021 157.289 252.312 154.943 255.171 154.908C258.031 154.874 260.378 157.164 260.412 160.024C260.446 162.884 258.156 165.23 255.296 165.265Z" fill="#1A1A1A"/>
<path d="M255.669 196.334C252.81 196.368 250.463 194.078 250.429 191.218C250.395 188.358 252.685 186.012 255.545 185.977C258.405 185.943 260.751 188.233 260.785 191.093C260.82 193.953 258.529 196.299 255.669 196.334Z" fill="#1A1A1A"/>
<path d="M256.043 227.403C253.183 227.437 250.837 225.147 250.803 222.287C250.768 219.427 253.059 217.081 255.918 217.047C258.778 217.012 261.125 219.303 261.159 222.163C261.193 225.022 258.903 227.369 256.043 227.403Z" fill="#1A1A1A"/>
<path d="M222.733 41.3614C219.873 41.3958 217.527 39.1053 217.492 36.2455C217.458 33.3856 219.748 31.0394 222.608 31.005C225.468 30.9706 227.814 33.2611 227.849 36.121C227.883 38.9808 225.593 41.327 222.733 41.3614Z" fill="#1A1A1A"/>
<path d="M223.106 72.4306C220.246 72.465 217.9 70.1745 217.866 67.3146C217.831 64.4548 220.122 62.1086 222.982 62.0742C225.842 62.0398 228.188 64.3303 228.222 67.1901C228.257 70.05 225.966 72.3962 223.106 72.4306Z" fill="#1A1A1A"/>
<path d="M223.48 103.5C220.62 103.534 218.274 101.244 218.239 98.3838C218.205 95.524 220.495 93.1777 223.355 93.1434C226.215 93.109 228.561 95.3995 228.596 98.2593C228.63 101.119 226.34 103.465 223.48 103.5Z" fill="#1A1A1A"/>
<path d="M223.853 134.569C220.993 134.603 218.647 132.313 218.613 129.453C218.578 126.593 220.869 124.247 223.729 124.213C226.589 124.178 228.935 126.469 228.969 129.329C229.004 132.188 226.713 134.535 223.853 134.569Z" fill="#1A1A1A"/>
<path d="M224.227 165.638C221.367 165.673 219.021 163.382 218.986 160.522C218.952 157.662 221.242 155.316 224.102 155.282C226.962 155.247 229.308 157.538 229.343 160.398C229.377 163.258 227.087 165.604 224.227 165.638Z" fill="#1A1A1A"/>
<path d="M224.6 196.707C221.74 196.742 219.394 194.451 219.36 191.591C219.325 188.731 221.616 186.385 224.476 186.351C227.336 186.316 229.682 188.607 229.716 191.467C229.751 194.327 227.46 196.673 224.6 196.707Z" fill="#1A1A1A"/>
<path d="M224.974 227.776C222.114 227.811 219.768 225.52 219.733 222.66C219.699 219.801 221.989 217.454 224.849 217.42C227.709 217.386 230.055 219.676 230.09 222.536C230.124 225.396 227.834 227.742 224.974 227.776Z" fill="#1A1A1A"/>
<path d="M225.347 258.846C222.487 258.88 220.141 256.59 220.107 253.73C220.072 250.87 222.363 248.524 225.223 248.489C228.083 248.455 230.429 250.745 230.463 253.605C230.498 256.465 228.207 258.811 225.347 258.846Z" fill="#1A1A1A"/>
<path d="M191.29 10.6657C188.43 10.7001 186.084 8.4096 186.05 5.54976C186.015 2.68993 188.306 0.343698 191.166 0.309319C194.025 0.27494 196.372 2.56543 196.406 5.42527C196.44 8.28511 194.15 10.6313 191.29 10.6657Z" fill="#1A1A1A"/>
<path d="M191.664 41.7349C188.804 41.7693 186.458 39.4788 186.423 36.6189C186.389 33.7591 188.679 31.4129 191.539 31.3785C194.399 31.3441 196.745 33.6346 196.78 36.4945C196.814 39.3543 194.523 41.7005 191.664 41.7349Z" fill="#1A1A1A"/>
<path d="M192.037 72.8041C189.177 72.8385 186.831 70.548 186.797 67.6881C186.762 64.8283 189.053 62.4821 191.913 62.4477C194.772 62.4133 197.119 64.7038 197.153 67.5636C197.187 70.4235 194.897 72.7697 192.037 72.8041Z" fill="#1A1A1A"/>
<path d="M192.411 103.873C189.551 103.908 187.205 101.617 187.17 98.7573C187.136 95.8975 189.426 93.5512 192.286 93.5169C195.146 93.4825 197.492 95.773 197.527 98.6328C197.561 101.493 195.27 103.839 192.411 103.873Z" fill="#1A1A1A"/>
<path d="M192.784 134.942C189.924 134.977 187.578 132.686 187.544 129.826C187.509 126.967 189.8 124.62 192.66 124.586C195.519 124.552 197.866 126.842 197.9 129.702C197.934 132.562 195.644 134.908 192.784 134.942Z" fill="#1A1A1A"/>
<path d="M193.158 166.012C190.298 166.046 187.952 163.756 187.917 160.896C187.883 158.036 190.173 155.69 193.033 155.655C195.893 155.621 198.239 157.911 198.274 160.771C198.308 163.631 196.017 165.977 193.158 166.012Z" fill="#1A1A1A"/>
<path d="M193.531 197.081C190.671 197.115 188.325 194.825 188.291 191.965C188.256 189.105 190.547 186.759 193.407 186.724C196.266 186.69 198.613 188.98 198.647 191.84C198.681 194.7 196.391 197.046 193.531 197.081Z" fill="#1A1A1A"/>
<path d="M193.905 228.15C191.045 228.184 188.699 225.894 188.664 223.034C188.63 220.174 190.92 217.828 193.78 217.794C196.64 217.759 198.986 220.05 199.021 222.909C199.055 225.769 196.764 228.116 193.905 228.15Z" fill="#1A1A1A"/>
<path d="M194.278 259.219C191.418 259.254 189.072 256.963 189.038 254.103C189.003 251.243 191.294 248.897 194.154 248.863C197.013 248.828 199.36 251.119 199.394 253.979C199.428 256.839 197.138 259.185 194.278 259.219Z" fill="#1A1A1A"/>
<path d="M194.652 290.288C191.792 290.323 189.446 288.032 189.411 285.172C189.377 282.313 191.667 279.966 194.527 279.932C197.387 279.898 199.733 282.188 199.768 285.048C199.802 287.908 197.511 290.254 194.652 290.288Z" fill="#1A1A1A"/>
<path d="M160.221 11.0392C157.361 11.0736 155.015 8.7831 154.981 5.92326C154.946 3.06342 157.237 0.717192 160.096 0.682813C162.956 0.648434 165.303 2.93892 165.337 5.79876C165.371 8.6586 163.081 11.0048 160.221 11.0392Z" fill="#1A1A1A"/>
<path d="M160.594 42.1084C157.735 42.1428 155.388 39.8523 155.354 36.9924C155.32 34.1326 157.61 31.7864 160.47 31.752C163.33 31.7176 165.676 34.0081 165.71 36.8679C165.745 39.7278 163.454 42.074 160.594 42.1084Z" fill="#1A1A1A"/>
<path d="M160.968 73.1776C158.108 73.212 155.762 70.9215 155.728 68.0616C155.693 65.2018 157.984 62.8556 160.843 62.8212C163.703 62.7868 166.05 65.0773 166.084 67.9371C166.118 70.797 163.828 73.1432 160.968 73.1776Z" fill="#1A1A1A"/>
<path d="M161.341 104.247C158.482 104.281 156.135 101.991 156.101 99.1308C156.067 96.271 158.357 93.9247 161.217 93.8904C164.077 93.856 166.423 96.1465 166.457 99.0063C166.492 101.866 164.201 104.212 161.341 104.247Z" fill="#1A1A1A"/>
<path d="M161.715 135.316C158.855 135.35 156.509 133.06 156.474 130.2C156.44 127.34 158.731 124.994 161.59 124.96C164.45 124.925 166.797 127.216 166.831 130.075C166.865 132.935 164.575 135.282 161.715 135.316Z" fill="#1A1A1A"/>
<path d="M162.088 166.385C159.229 166.42 156.882 164.129 156.848 161.269C156.814 158.409 159.104 156.063 161.964 156.029C164.824 155.994 167.17 158.285 167.204 161.145C167.239 164.004 164.948 166.351 162.088 166.385Z" fill="#1A1A1A"/>
<path d="M162.462 197.454C159.602 197.489 157.256 195.198 157.221 192.338C157.187 189.478 159.478 187.132 162.337 187.098C165.197 187.063 167.543 189.354 167.578 192.214C167.612 195.074 165.322 197.42 162.462 197.454Z" fill="#1A1A1A"/>
<path d="M162.835 228.523C159.976 228.558 157.629 226.267 157.595 223.407C157.561 220.548 159.851 218.201 162.711 218.167C165.571 218.133 167.917 220.423 167.951 223.283C167.986 226.143 165.695 228.489 162.835 228.523Z" fill="#1A1A1A"/>
<path d="M163.209 259.593C160.349 259.627 158.003 257.337 157.968 254.477C157.934 251.617 160.225 249.271 163.084 249.236C165.944 249.202 168.29 251.492 168.325 254.352C168.359 257.212 166.069 259.558 163.209 259.593Z" fill="#1A1A1A"/>
<path d="M163.582 290.662C160.723 290.696 158.376 288.406 158.342 285.546C158.308 282.686 160.598 280.34 163.458 280.305C166.318 280.271 168.664 282.562 168.698 285.421C168.733 288.281 166.442 290.627 163.582 290.662Z" fill="#1A1A1A"/>
<path d="M129.152 11.4127C126.292 11.4471 123.946 9.15659 123.911 6.29675C123.877 3.43691 126.167 1.09069 129.027 1.05631C131.887 1.02193 134.233 3.31242 134.268 6.17226C134.302 9.03209 132.012 11.3783 129.152 11.4127Z" fill="#1A1A1A"/>
<path d="M129.525 42.4819C126.665 42.5163 124.319 40.2258 124.285 37.3659C124.25 34.5061 126.541 32.1599 129.401 32.1255C132.261 32.0911 134.607 34.3816 134.641 37.2414C134.676 40.1013 132.385 42.4475 129.525 42.4819Z" fill="#1A1A1A"/>
<path d="M129.899 73.5511C127.039 73.5854 124.693 71.295 124.658 68.4351C124.624 65.5753 126.914 63.2291 129.774 63.1947C132.634 63.1603 134.98 65.4508 135.015 68.3106C135.049 71.1705 132.759 73.5167 129.899 73.5511Z" fill="#1A1A1A"/>
<path d="M130.272 104.62C127.412 104.655 125.066 102.364 125.032 99.5043C124.997 96.6445 127.288 94.2982 130.148 94.2639C133.008 94.2295 135.354 96.52 135.388 99.3798C135.423 102.24 133.132 104.586 130.272 104.62Z" fill="#1A1A1A"/>
<path d="M130.646 135.689C127.786 135.724 125.44 133.433 125.405 130.573C125.371 127.714 127.661 125.367 130.521 125.333C133.381 125.299 135.727 127.589 135.762 130.449C135.796 133.309 133.506 135.655 130.646 135.689Z" fill="#1A1A1A"/>
<path d="M131.019 166.759C128.159 166.793 125.813 164.502 125.779 161.643C125.744 158.783 128.035 156.437 130.895 156.402C133.755 156.368 136.101 158.658 136.135 161.518C136.17 164.378 133.879 166.724 131.019 166.759Z" fill="#1A1A1A"/>
<path d="M131.393 197.828C128.533 197.862 126.187 195.572 126.152 192.712C126.118 189.852 128.408 187.506 131.268 187.471C134.128 187.437 136.474 189.727 136.509 192.587C136.543 195.447 134.253 197.793 131.393 197.828Z" fill="#1A1A1A"/>
<path d="M131.766 228.897C128.906 228.931 126.56 226.641 126.526 223.781C126.491 220.921 128.782 218.575 131.642 218.541C134.502 218.506 136.848 220.797 136.882 223.656C136.917 226.516 134.626 228.863 131.766 228.897Z" fill="#1A1A1A"/>
<path d="M132.14 259.966C129.28 260.001 126.934 257.71 126.899 254.85C126.865 251.99 129.155 249.644 132.015 249.61C134.875 249.575 137.221 251.866 137.256 254.726C137.29 257.586 135 259.932 132.14 259.966Z" fill="#1A1A1A"/>
<path d="M132.513 291.035C129.653 291.07 127.307 288.779 127.273 285.919C127.238 283.06 129.529 280.713 132.389 280.679C135.249 280.645 137.595 282.935 137.629 285.795C137.664 288.655 135.373 291.001 132.513 291.035Z" fill="#1A1A1A"/>
<path d="M98.0826 11.7862C95.2228 11.8206 92.8765 9.53009 92.8422 6.67025C92.8078 3.81041 95.0983 1.46418 97.9581 1.4298C100.818 1.39542 103.164 3.68591 103.199 6.54575C103.233 9.40559 100.942 11.7518 98.0826 11.7862Z" fill="#1A1A1A"/>
<path d="M98.4561 42.8554C95.5963 42.8898 93.25 40.5993 93.2156 37.7394C93.1813 34.8796 95.4718 32.5334 98.3316 32.499C101.191 32.4646 103.538 34.7551 103.572 37.6149C103.606 40.4748 101.316 42.821 98.4561 42.8554Z" fill="#1A1A1A"/>
<path d="M98.8296 73.9246C95.9698 73.9589 93.6235 71.6685 93.5891 68.8086C93.5548 65.9488 95.8453 63.6025 98.7051 63.5682C101.565 63.5338 103.911 65.8243 103.946 68.6841C103.98 71.544 101.689 73.8902 98.8296 73.9246Z" fill="#1A1A1A"/>
<path d="M99.2031 104.994C96.3433 105.028 93.997 102.738 93.9626 99.8778C93.9283 97.0179 96.2188 94.6717 99.0786 94.6373C101.938 94.603 104.285 96.8934 104.319 99.7533C104.353 102.613 102.063 104.959 99.2031 104.994Z" fill="#1A1A1A"/>
<path d="M99.5766 136.063C96.7168 136.097 94.3705 133.807 94.3361 130.947C94.3017 128.087 96.5923 125.741 99.4521 125.707C102.312 125.672 104.658 127.963 104.693 130.822C104.727 133.682 102.436 136.029 99.5766 136.063Z" fill="#1A1A1A"/>
<path d="M99.9501 167.132C97.0902 167.166 94.744 164.876 94.7096 162.016C94.6752 159.156 96.9657 156.81 99.8256 156.776C102.685 156.741 105.032 159.032 105.066 161.892C105.1 164.751 102.81 167.098 99.9501 167.132Z" fill="#1A1A1A"/>
<path d="M100.324 198.201C97.4637 198.236 95.1175 195.945 95.0831 193.085C95.0487 190.225 97.3392 187.879 100.199 187.845C103.059 187.81 105.405 190.101 105.44 192.961C105.474 195.821 103.183 198.167 100.324 198.201Z" fill="#1A1A1A"/>
<path d="M100.697 229.27C97.8372 229.305 95.491 227.014 95.4566 224.154C95.4222 221.295 97.7127 218.948 100.573 218.914C103.432 218.88 105.779 221.17 105.813 224.03C105.847 226.89 103.557 229.236 100.697 229.27Z" fill="#1A1A1A"/>
<path d="M101.071 260.34C98.2107 260.374 95.8645 258.083 95.8301 255.224C95.7957 252.364 98.0862 250.018 100.946 249.983C103.806 249.949 106.152 252.239 106.187 255.099C106.221 257.959 103.93 260.305 101.071 260.34Z" fill="#1A1A1A"/>
<path d="M101.444 291.409C98.5842 291.443 96.238 289.153 96.2036 286.293C96.1692 283.433 98.4597 281.087 101.32 281.052C104.179 281.018 106.526 283.309 106.56 286.168C106.594 289.028 104.304 291.374 101.444 291.409Z" fill="#1A1A1A"/>
<path d="M67.3869 43.2289C64.5271 43.2633 62.1809 40.9728 62.1465 38.1129C62.1121 35.2531 64.4026 32.9069 67.2624 32.8725C70.1223 32.8381 72.4685 35.1286 72.5029 37.9884C72.5372 40.8483 70.2468 43.1945 67.3869 43.2289Z" fill="#1A1A1A"/>
<path d="M67.7604 74.2981C64.9006 74.3324 62.5544 72.0419 62.52 69.1821C62.4856 66.3223 64.7761 63.976 67.6359 63.9417C70.4957 63.9073 72.842 66.1978 72.8764 69.0576C72.9107 71.9174 70.6202 74.2637 67.7604 74.2981Z" fill="#1A1A1A"/>
<path d="M68.1339 105.367C65.2741 105.402 62.9278 103.111 62.8935 100.251C62.8591 97.3914 65.1496 95.0452 68.0094 95.0108C70.8692 94.9765 73.2155 97.2669 73.2499 100.127C73.2842 102.987 70.9937 105.333 68.1339 105.367Z" fill="#1A1A1A"/>
<path d="M68.5074 136.436C65.6476 136.471 63.3013 134.18 63.267 131.32C63.2326 128.461 65.5231 126.114 68.3829 126.08C71.2427 126.046 73.589 128.336 73.6233 131.196C73.6577 134.056 71.3672 136.402 68.5074 136.436Z" fill="#1A1A1A"/>
<path d="M68.8809 167.506C66.021 167.54 63.6748 165.249 63.6405 162.39C63.6061 159.53 65.8966 157.184 68.7564 157.149C71.6162 157.115 73.9625 159.405 73.9968 162.265C74.0312 165.125 71.7407 167.471 68.8809 167.506Z" fill="#1A1A1A"/>
<path d="M69.2544 198.575C66.3945 198.609 64.0483 196.319 64.0139 193.459C63.9796 190.599 66.27 188.253 69.1299 188.218C71.9897 188.184 74.336 190.474 74.3703 193.334C74.4047 196.194 72.1142 198.54 69.2544 198.575Z" fill="#1A1A1A"/>
<path d="M69.6279 229.644C66.768 229.678 64.4218 227.388 64.3874 224.528C64.3531 221.668 66.6435 219.322 69.5034 219.288C72.3632 219.253 74.7094 221.544 74.7438 224.403C74.7782 227.263 72.4877 229.61 69.6279 229.644Z" fill="#1A1A1A"/>
<path d="M70.0014 260.713C67.1415 260.747 64.7953 258.457 64.7609 255.597C64.7266 252.737 67.017 250.391 69.8769 250.357C72.7367 250.322 75.0829 252.613 75.1173 255.473C75.1517 258.332 72.8612 260.679 70.0014 260.713Z" fill="#1A1A1A"/>
<path d="M36.6912 74.6716C33.8314 74.7059 31.4852 72.4154 31.4508 69.5556C31.4164 66.6958 33.7069 64.3495 36.5667 64.3152C39.4266 64.2808 41.7728 66.5713 41.8072 69.4311C41.8415 72.2909 39.551 74.6372 36.6912 74.6716Z" fill="#1A1A1A"/>
<path d="M37.0647 105.741C34.2049 105.775 31.8586 103.485 31.8243 100.625C31.7899 97.7649 34.0804 95.4187 36.9402 95.3843C39.8 95.35 42.1463 97.6404 42.1807 100.5C42.215 103.36 39.9245 105.706 37.0647 105.741Z" fill="#1A1A1A"/>
<path d="M37.4382 136.81C34.5784 136.844 32.2321 134.554 32.1978 131.694C32.1634 128.834 34.4539 126.488 37.3137 126.454C40.1735 126.419 42.5198 128.71 42.5541 131.569C42.5885 134.429 40.298 136.776 37.4382 136.81Z" fill="#1A1A1A"/>
<path d="M37.8117 167.879C34.9519 167.913 32.6056 165.623 32.5713 162.763C32.5369 159.903 34.8274 157.557 37.6872 157.523C40.547 157.488 42.8933 159.779 42.9276 162.639C42.962 165.498 40.6715 167.845 37.8117 167.879Z" fill="#1A1A1A"/>
<path d="M38.1852 198.948C35.3253 198.983 32.9791 196.692 32.9448 193.832C32.9104 190.972 35.2008 188.626 38.0607 188.592C40.9205 188.557 43.2668 190.848 43.3011 193.708C43.3355 196.568 41.045 198.914 38.1852 198.948Z" fill="#1A1A1A"/>
<path d="M38.5587 230.017C35.6988 230.052 33.3526 227.761 33.3182 224.901C33.2839 222.042 35.5743 219.695 38.4342 219.661C41.294 219.627 43.6403 221.917 43.6746 224.777C43.709 227.637 41.4185 229.983 38.5587 230.017Z" fill="#1A1A1A"/>
<path d="M5.99554 106.114C3.1357 106.149 0.789452 103.858 0.755073 100.998C0.720694 98.1384 3.0112 95.7922 5.87104 95.7578C8.73088 95.7235 11.0771 98.0139 11.1115 100.874C11.1459 103.734 8.85538 106.08 5.99554 106.114Z" fill="#1A1A1A"/>
<path d="M6.36903 137.183C3.50919 137.218 1.16295 134.927 1.12857 132.067C1.09419 129.208 3.38469 126.861 6.24453 126.827C9.10437 126.793 11.4506 129.083 11.485 131.943C11.5193 134.803 9.22887 137.149 6.36903 137.183Z" fill="#1A1A1A"/>
<path d="M6.74253 168.253C3.88269 168.287 1.53644 165.996 1.50206 163.137C1.46768 160.277 3.75819 157.931 6.61803 157.896C9.47787 157.862 11.8241 160.152 11.8585 163.012C11.8928 165.872 9.60237 168.218 6.74253 168.253Z" fill="#1A1A1A"/>
<path d="M7.11602 199.322C4.25618 199.356 1.90993 197.066 1.87556 194.206C1.84118 191.346 4.13168 189 6.99152 188.965C9.85136 188.931 12.1976 191.221 12.232 194.081C12.2663 196.941 9.97586 199.287 7.11602 199.322Z" fill="#1A1A1A"/>
<path d="M222.367 10.9573C219.507 10.9917 217.161 8.7012 217.127 5.84136C217.092 2.98152 219.383 0.635293 222.243 0.600914C225.103 0.566535 227.449 2.85702 227.483 5.71686C227.518 8.5767 225.227 10.9229 222.367 10.9573Z" fill="#1A1A1A"/>
</g>
</svg>
