<svg width="124" height="290" viewBox="0 0 124 290" fill="none" xmlns="http://www.w3.org/2000/svg">
<g opacity="0.1">
<path d="M113.644 67.4446C114.447 68.8356 115.229 70.2403 115.99 71.6581C114.609 70.7544 113.685 69.2086 113.644 67.4446Z" fill="#1A1A1A"/>
<path d="M85.2891 31.6924C87.7023 33.9569 90.043 36.2977 92.3076 38.7109C91.4319 40.3293 89.7193 41.4286 87.75 41.4286C84.89 41.4286 82.5714 39.11 82.5714 36.25C82.5714 34.2807 83.6707 32.5681 85.2891 31.6924Z" fill="#1A1A1A"/>
<path d="M52.3419 8.01005C53.7597 8.77071 55.1644 9.55274 56.5554 10.3557C54.7914 10.3145 53.2456 9.39133 52.3419 8.01005Z" fill="#1A1A1A"/>
<path d="M-98.5554 10.3557C-97.1644 9.55273 -95.7597 8.77071 -94.3419 8.01004C-95.2456 9.39133 -96.7914 10.3145 -98.5554 10.3557Z" fill="#1A1A1A"/>
<path d="M-134.308 38.7109C-132.043 36.2977 -129.702 33.9569 -127.289 31.6924C-125.671 32.5681 -124.571 34.2807 -124.571 36.25C-124.571 39.11 -126.89 41.4286 -129.75 41.4286C-131.719 41.4286 -133.432 40.3293 -134.308 38.7109Z" fill="#1A1A1A"/>
<path d="M-157.99 71.6581C-157.229 70.2403 -156.447 68.8356 -155.644 67.4446C-155.685 69.2086 -156.609 70.7544 -157.99 71.6581Z" fill="#1A1A1A"/>
<path d="M115.99 218.342C115.229 219.76 114.447 221.164 113.644 222.555C113.685 220.791 114.609 219.246 115.99 218.342Z" fill="#1A1A1A"/>
<path d="M92.3076 251.289C91.4319 249.671 89.7193 248.571 87.75 248.571C84.89 248.571 82.5714 250.89 82.5714 253.75C82.5714 255.719 83.6707 257.432 85.2891 258.308C87.7023 256.043 90.043 253.702 92.3076 251.289Z" fill="#1A1A1A"/>
<path d="M56.5554 279.644C54.7914 279.685 53.2456 280.609 52.3419 281.99C53.7597 281.229 55.1644 280.447 56.5554 279.644Z" fill="#1A1A1A"/>
<path d="M-94.3419 281.99C-95.2456 280.609 -96.7914 279.685 -98.5554 279.644C-97.1644 280.447 -95.7597 281.229 -94.3419 281.99Z" fill="#1A1A1A"/>
<path d="M-127.289 258.308C-125.671 257.432 -124.571 255.719 -124.571 253.75C-124.571 250.89 -126.89 248.571 -129.75 248.571C-131.719 248.571 -133.432 249.671 -134.308 251.289C-132.043 253.702 -129.702 256.043 -127.289 258.308Z" fill="#1A1A1A"/>
<path d="M-155.644 222.555C-155.685 220.791 -156.609 219.246 -157.99 218.342C-157.229 219.76 -156.447 221.164 -155.644 222.555Z" fill="#1A1A1A"/>
<path d="M-62.4286 5.17857C-62.4286 8.03862 -64.7471 10.3571 -67.6071 10.3571C-70.4672 10.3571 -72.7857 8.03862 -72.7857 5.17857C-72.7857 2.31853 -70.4672 0 -67.6071 0C-64.7471 0 -62.4286 2.31853 -62.4286 5.17857Z" fill="#1A1A1A"/>
<path d="M-31.3571 5.17857C-31.3571 8.03862 -33.6757 10.3571 -36.5357 10.3571C-39.3958 10.3571 -41.7143 8.03862 -41.7143 5.17857C-41.7143 2.31853 -39.3958 0 -36.5357 0C-33.6757 0 -31.3571 2.31853 -31.3571 5.17857Z" fill="#1A1A1A"/>
<path d="M-0.285721 5.17857C-0.285721 8.03862 -2.60425 10.3571 -5.46429 10.3571C-8.32434 10.3571 -10.6429 8.03862 -10.6429 5.17857C-10.6429 2.31853 -8.32434 0 -5.46429 0C-2.60425 0 -0.285721 2.31853 -0.285721 5.17857Z" fill="#1A1A1A"/>
<path d="M30.7857 5.17857C30.7857 8.03862 28.4672 10.3571 25.6071 10.3571C22.7471 10.3571 20.4286 8.03862 20.4286 5.17857C20.4286 2.31853 22.7471 0 25.6071 0C28.4672 0 30.7857 2.31853 30.7857 5.17857Z" fill="#1A1A1A"/>
<path d="M-93.5 36.25C-93.5 39.11 -95.8185 41.4286 -98.6786 41.4286C-101.539 41.4286 -103.857 39.11 -103.857 36.25C-103.857 33.39 -101.539 31.0714 -98.6786 31.0714C-95.8185 31.0714 -93.5 33.39 -93.5 36.25Z" fill="#1A1A1A"/>
<path d="M-62.4286 36.25C-62.4286 39.11 -64.7471 41.4286 -67.6071 41.4286C-70.4672 41.4286 -72.7857 39.11 -72.7857 36.25C-72.7857 33.39 -70.4672 31.0714 -67.6071 31.0714C-64.7471 31.0714 -62.4286 33.39 -62.4286 36.25Z" fill="#1A1A1A"/>
<path d="M-31.3571 36.25C-31.3571 39.11 -33.6757 41.4286 -36.5357 41.4286C-39.3958 41.4286 -41.7143 39.11 -41.7143 36.25C-41.7143 33.39 -39.3958 31.0714 -36.5357 31.0714C-33.6757 31.0714 -31.3571 33.39 -31.3571 36.25Z" fill="#1A1A1A"/>
<path d="M-0.285721 36.25C-0.285721 39.11 -2.60425 41.4286 -5.46429 41.4286C-8.32434 41.4286 -10.6429 39.11 -10.6429 36.25C-10.6429 33.39 -8.32434 31.0714 -5.46429 31.0714C-2.60425 31.0714 -0.285721 33.39 -0.285721 36.25Z" fill="#1A1A1A"/>
<path d="M30.7857 36.25C30.7857 39.11 28.4672 41.4286 25.6071 41.4286C22.7471 41.4286 20.4286 39.11 20.4286 36.25C20.4286 33.39 22.7471 31.0714 25.6071 31.0714C28.4672 31.0714 30.7857 33.39 30.7857 36.25Z" fill="#1A1A1A"/>
<path d="M61.8571 36.25C61.8571 39.11 59.5386 41.4286 56.6786 41.4286C53.8185 41.4286 51.5 39.11 51.5 36.25C51.5 33.39 53.8185 31.0714 56.6786 31.0714C59.5386 31.0714 61.8571 33.39 61.8571 36.25Z" fill="#1A1A1A"/>
<path d="M-124.571 67.3214C-124.571 70.1815 -126.89 72.5 -129.75 72.5C-132.61 72.5 -134.929 70.1815 -134.929 67.3214C-134.929 64.4614 -132.61 62.1429 -129.75 62.1429C-126.89 62.1429 -124.571 64.4614 -124.571 67.3214Z" fill="#1A1A1A"/>
<path d="M-93.5 67.3214C-93.5 70.1815 -95.8185 72.5 -98.6786 72.5C-101.539 72.5 -103.857 70.1815 -103.857 67.3214C-103.857 64.4614 -101.539 62.1429 -98.6786 62.1429C-95.8185 62.1429 -93.5 64.4614 -93.5 67.3214Z" fill="#1A1A1A"/>
<path d="M-62.4286 67.3214C-62.4286 70.1815 -64.7471 72.5 -67.6071 72.5C-70.4672 72.5 -72.7857 70.1815 -72.7857 67.3214C-72.7857 64.4614 -70.4672 62.1429 -67.6071 62.1429C-64.7471 62.1429 -62.4286 64.4614 -62.4286 67.3214Z" fill="#1A1A1A"/>
<path d="M-31.3571 67.3214C-31.3571 70.1815 -33.6757 72.5 -36.5357 72.5C-39.3958 72.5 -41.7143 70.1815 -41.7143 67.3214C-41.7143 64.4614 -39.3958 62.1429 -36.5357 62.1429C-33.6757 62.1429 -31.3571 64.4614 -31.3571 67.3214Z" fill="#1A1A1A"/>
<path d="M-0.285721 67.3214C-0.285721 70.1815 -2.60425 72.5 -5.46429 72.5C-8.32434 72.5 -10.6429 70.1815 -10.6429 67.3214C-10.6429 64.4614 -8.32434 62.1429 -5.46429 62.1429C-2.60425 62.1429 -0.285721 64.4614 -0.285721 67.3214Z" fill="#1A1A1A"/>
<path d="M30.7857 67.3214C30.7857 70.1815 28.4672 72.5 25.6071 72.5C22.7471 72.5 20.4286 70.1815 20.4286 67.3214C20.4286 64.4614 22.7471 62.1429 25.6071 62.1429C28.4672 62.1429 30.7857 64.4614 30.7857 67.3214Z" fill="#1A1A1A"/>
<path d="M61.8571 67.3214C61.8571 70.1815 59.5386 72.5 56.6786 72.5C53.8185 72.5 51.5 70.1815 51.5 67.3214C51.5 64.4614 53.8185 62.1429 56.6786 62.1429C59.5386 62.1429 61.8571 64.4614 61.8571 67.3214Z" fill="#1A1A1A"/>
<path d="M92.9286 67.3214C92.9286 70.1815 90.61 72.5 87.75 72.5C84.89 72.5 82.5714 70.1815 82.5714 67.3214C82.5714 64.4614 84.89 62.1429 87.75 62.1429C90.61 62.1429 92.9286 64.4614 92.9286 67.3214Z" fill="#1A1A1A"/>
<path d="M-155.643 98.3929C-155.643 101.253 -157.961 103.571 -160.821 103.571C-163.681 103.571 -166 101.253 -166 98.3929C-166 95.5328 -163.681 93.2143 -160.821 93.2143C-157.961 93.2143 -155.643 95.5328 -155.643 98.3929Z" fill="#1A1A1A"/>
<path d="M-124.571 98.3929C-124.571 101.253 -126.89 103.571 -129.75 103.571C-132.61 103.571 -134.929 101.253 -134.929 98.3929C-134.929 95.5328 -132.61 93.2143 -129.75 93.2143C-126.89 93.2143 -124.571 95.5328 -124.571 98.3929Z" fill="#1A1A1A"/>
<path d="M-93.5 98.3929C-93.5 101.253 -95.8185 103.571 -98.6786 103.571C-101.539 103.571 -103.857 101.253 -103.857 98.3929C-103.857 95.5328 -101.539 93.2143 -98.6786 93.2143C-95.8185 93.2143 -93.5 95.5328 -93.5 98.3929Z" fill="#1A1A1A"/>
<path d="M-62.4286 98.3929C-62.4286 101.253 -64.7471 103.571 -67.6071 103.571C-70.4672 103.571 -72.7857 101.253 -72.7857 98.3929C-72.7857 95.5328 -70.4672 93.2143 -67.6071 93.2143C-64.7471 93.2143 -62.4286 95.5328 -62.4286 98.3929Z" fill="#1A1A1A"/>
<path d="M-31.3571 98.3929C-31.3571 101.253 -33.6757 103.571 -36.5357 103.571C-39.3958 103.571 -41.7143 101.253 -41.7143 98.3929C-41.7143 95.5328 -39.3958 93.2143 -36.5357 93.2143C-33.6757 93.2143 -31.3571 95.5328 -31.3571 98.3929Z" fill="#1A1A1A"/>
<path d="M-0.285721 98.3929C-0.285721 101.253 -2.60425 103.571 -5.46429 103.571C-8.32434 103.571 -10.6429 101.253 -10.6429 98.3929C-10.6429 95.5328 -8.32434 93.2143 -5.46429 93.2143C-2.60425 93.2143 -0.285721 95.5328 -0.285721 98.3929Z" fill="#1A1A1A"/>
<path d="M30.7857 98.3929C30.7857 101.253 28.4672 103.571 25.6071 103.571C22.7471 103.571 20.4286 101.253 20.4286 98.3929C20.4286 95.5328 22.7471 93.2143 25.6071 93.2143C28.4672 93.2143 30.7857 95.5328 30.7857 98.3929Z" fill="#1A1A1A"/>
<path d="M61.8571 98.3929C61.8571 101.253 59.5386 103.571 56.6786 103.571C53.8185 103.571 51.5 101.253 51.5 98.3929C51.5 95.5328 53.8185 93.2143 56.6786 93.2143C59.5386 93.2143 61.8571 95.5328 61.8571 98.3929Z" fill="#1A1A1A"/>
<path d="M92.9286 98.3929C92.9286 101.253 90.61 103.571 87.75 103.571C84.89 103.571 82.5714 101.253 82.5714 98.3929C82.5714 95.5328 84.89 93.2143 87.75 93.2143C90.61 93.2143 92.9286 95.5328 92.9286 98.3929Z" fill="#1A1A1A"/>
<path d="M124 98.3929C124 101.253 121.681 103.571 118.821 103.571C115.961 103.571 113.643 101.253 113.643 98.3929C113.643 95.5328 115.961 93.2143 118.821 93.2143C121.681 93.2143 124 95.5328 124 98.3929Z" fill="#1A1A1A"/>
<path d="M-155.643 129.464C-155.643 132.324 -157.961 134.643 -160.821 134.643C-163.681 134.643 -166 132.324 -166 129.464C-166 126.604 -163.681 124.286 -160.821 124.286C-157.961 124.286 -155.643 126.604 -155.643 129.464Z" fill="#1A1A1A"/>
<path d="M-124.571 129.464C-124.571 132.324 -126.89 134.643 -129.75 134.643C-132.61 134.643 -134.929 132.324 -134.929 129.464C-134.929 126.604 -132.61 124.286 -129.75 124.286C-126.89 124.286 -124.571 126.604 -124.571 129.464Z" fill="#1A1A1A"/>
<path d="M-93.5 129.464C-93.5 132.324 -95.8185 134.643 -98.6786 134.643C-101.539 134.643 -103.857 132.324 -103.857 129.464C-103.857 126.604 -101.539 124.286 -98.6786 124.286C-95.8185 124.286 -93.5 126.604 -93.5 129.464Z" fill="#1A1A1A"/>
<path d="M-62.4286 129.464C-62.4286 132.324 -64.7471 134.643 -67.6071 134.643C-70.4672 134.643 -72.7857 132.324 -72.7857 129.464C-72.7857 126.604 -70.4672 124.286 -67.6071 124.286C-64.7471 124.286 -62.4286 126.604 -62.4286 129.464Z" fill="#1A1A1A"/>
<path d="M-31.3571 129.464C-31.3571 132.324 -33.6757 134.643 -36.5357 134.643C-39.3958 134.643 -41.7143 132.324 -41.7143 129.464C-41.7143 126.604 -39.3958 124.286 -36.5357 124.286C-33.6757 124.286 -31.3571 126.604 -31.3571 129.464Z" fill="#1A1A1A"/>
<path d="M-0.285721 129.464C-0.285721 132.324 -2.60425 134.643 -5.46429 134.643C-8.32434 134.643 -10.6429 132.324 -10.6429 129.464C-10.6429 126.604 -8.32434 124.286 -5.46429 124.286C-2.60425 124.286 -0.285721 126.604 -0.285721 129.464Z" fill="#1A1A1A"/>
<path d="M30.7857 129.464C30.7857 132.324 28.4672 134.643 25.6071 134.643C22.7471 134.643 20.4286 132.324 20.4286 129.464C20.4286 126.604 22.7471 124.286 25.6071 124.286C28.4672 124.286 30.7857 126.604 30.7857 129.464Z" fill="#1A1A1A"/>
<path d="M61.8571 129.464C61.8571 132.324 59.5386 134.643 56.6786 134.643C53.8185 134.643 51.5 132.324 51.5 129.464C51.5 126.604 53.8185 124.286 56.6786 124.286C59.5386 124.286 61.8571 126.604 61.8571 129.464Z" fill="#1A1A1A"/>
<path d="M92.9286 129.464C92.9286 132.324 90.61 134.643 87.75 134.643C84.89 134.643 82.5714 132.324 82.5714 129.464C82.5714 126.604 84.89 124.286 87.75 124.286C90.61 124.286 92.9286 126.604 92.9286 129.464Z" fill="#1A1A1A"/>
<path d="M124 129.464C124 132.324 121.681 134.643 118.821 134.643C115.961 134.643 113.643 132.324 113.643 129.464C113.643 126.604 115.961 124.286 118.821 124.286C121.681 124.286 124 126.604 124 129.464Z" fill="#1A1A1A"/>
<path d="M-155.643 160.536C-155.643 163.396 -157.961 165.714 -160.821 165.714C-163.681 165.714 -166 163.396 -166 160.536C-166 157.676 -163.681 155.357 -160.821 155.357C-157.961 155.357 -155.643 157.676 -155.643 160.536Z" fill="#1A1A1A"/>
<path d="M-124.571 160.536C-124.571 163.396 -126.89 165.714 -129.75 165.714C-132.61 165.714 -134.929 163.396 -134.929 160.536C-134.929 157.676 -132.61 155.357 -129.75 155.357C-126.89 155.357 -124.571 157.676 -124.571 160.536Z" fill="#1A1A1A"/>
<path d="M-93.5 160.536C-93.5 163.396 -95.8185 165.714 -98.6786 165.714C-101.539 165.714 -103.857 163.396 -103.857 160.536C-103.857 157.676 -101.539 155.357 -98.6786 155.357C-95.8185 155.357 -93.5 157.676 -93.5 160.536Z" fill="#1A1A1A"/>
<path d="M-62.4286 160.536C-62.4286 163.396 -64.7471 165.714 -67.6071 165.714C-70.4672 165.714 -72.7857 163.396 -72.7857 160.536C-72.7857 157.676 -70.4672 155.357 -67.6071 155.357C-64.7471 155.357 -62.4286 157.676 -62.4286 160.536Z" fill="#1A1A1A"/>
<path d="M-31.3571 160.536C-31.3571 163.396 -33.6757 165.714 -36.5357 165.714C-39.3958 165.714 -41.7143 163.396 -41.7143 160.536C-41.7143 157.676 -39.3958 155.357 -36.5357 155.357C-33.6757 155.357 -31.3571 157.676 -31.3571 160.536Z" fill="#1A1A1A"/>
<path d="M-0.285721 160.536C-0.285721 163.396 -2.60425 165.714 -5.46429 165.714C-8.32434 165.714 -10.6429 163.396 -10.6429 160.536C-10.6429 157.676 -8.32434 155.357 -5.46429 155.357C-2.60425 155.357 -0.285721 157.676 -0.285721 160.536Z" fill="#1A1A1A"/>
<path d="M30.7857 160.536C30.7857 163.396 28.4672 165.714 25.6071 165.714C22.7471 165.714 20.4286 163.396 20.4286 160.536C20.4286 157.676 22.7471 155.357 25.6071 155.357C28.4672 155.357 30.7857 157.676 30.7857 160.536Z" fill="#1A1A1A"/>
<path d="M61.8571 160.536C61.8571 163.396 59.5386 165.714 56.6786 165.714C53.8185 165.714 51.5 163.396 51.5 160.536C51.5 157.676 53.8185 155.357 56.6786 155.357C59.5386 155.357 61.8571 157.676 61.8571 160.536Z" fill="#1A1A1A"/>
<path d="M92.9286 160.536C92.9286 163.396 90.61 165.714 87.75 165.714C84.89 165.714 82.5714 163.396 82.5714 160.536C82.5714 157.676 84.89 155.357 87.75 155.357C90.61 155.357 92.9286 157.676 92.9286 160.536Z" fill="#1A1A1A"/>
<path d="M124 160.536C124 163.396 121.681 165.714 118.821 165.714C115.961 165.714 113.643 163.396 113.643 160.536C113.643 157.676 115.961 155.357 118.821 155.357C121.681 155.357 124 157.676 124 160.536Z" fill="#1A1A1A"/>
<path d="M-155.643 191.607C-155.643 194.467 -157.961 196.786 -160.821 196.786C-163.681 196.786 -166 194.467 -166 191.607C-166 188.747 -163.681 186.429 -160.821 186.429C-157.961 186.429 -155.643 188.747 -155.643 191.607Z" fill="#1A1A1A"/>
<path d="M-124.571 191.607C-124.571 194.467 -126.89 196.786 -129.75 196.786C-132.61 196.786 -134.929 194.467 -134.929 191.607C-134.929 188.747 -132.61 186.429 -129.75 186.429C-126.89 186.429 -124.571 188.747 -124.571 191.607Z" fill="#1A1A1A"/>
<path d="M-93.5 191.607C-93.5 194.467 -95.8185 196.786 -98.6786 196.786C-101.539 196.786 -103.857 194.467 -103.857 191.607C-103.857 188.747 -101.539 186.429 -98.6786 186.429C-95.8185 186.429 -93.5 188.747 -93.5 191.607Z" fill="#1A1A1A"/>
<path d="M-62.4286 191.607C-62.4286 194.467 -64.7471 196.786 -67.6071 196.786C-70.4672 196.786 -72.7857 194.467 -72.7857 191.607C-72.7857 188.747 -70.4672 186.429 -67.6071 186.429C-64.7471 186.429 -62.4286 188.747 -62.4286 191.607Z" fill="#1A1A1A"/>
<path d="M-31.3571 191.607C-31.3571 194.467 -33.6757 196.786 -36.5357 196.786C-39.3958 196.786 -41.7143 194.467 -41.7143 191.607C-41.7143 188.747 -39.3958 186.429 -36.5357 186.429C-33.6757 186.429 -31.3571 188.747 -31.3571 191.607Z" fill="#1A1A1A"/>
<path d="M-0.285721 191.607C-0.285721 194.467 -2.60425 196.786 -5.46429 196.786C-8.32434 196.786 -10.6429 194.467 -10.6429 191.607C-10.6429 188.747 -8.32434 186.429 -5.46429 186.429C-2.60425 186.429 -0.285721 188.747 -0.285721 191.607Z" fill="#1A1A1A"/>
<path d="M30.7857 191.607C30.7857 194.467 28.4672 196.786 25.6071 196.786C22.7471 196.786 20.4286 194.467 20.4286 191.607C20.4286 188.747 22.7471 186.429 25.6071 186.429C28.4672 186.429 30.7857 188.747 30.7857 191.607Z" fill="#1A1A1A"/>
<path d="M61.8571 191.607C61.8571 194.467 59.5386 196.786 56.6786 196.786C53.8185 196.786 51.5 194.467 51.5 191.607C51.5 188.747 53.8185 186.429 56.6786 186.429C59.5386 186.429 61.8571 188.747 61.8571 191.607Z" fill="#1A1A1A"/>
<path d="M92.9286 191.607C92.9286 194.467 90.61 196.786 87.75 196.786C84.89 196.786 82.5714 194.467 82.5714 191.607C82.5714 188.747 84.89 186.429 87.75 186.429C90.61 186.429 92.9286 188.747 92.9286 191.607Z" fill="#1A1A1A"/>
<path d="M124 191.607C124 194.467 121.681 196.786 118.821 196.786C115.961 196.786 113.643 194.467 113.643 191.607C113.643 188.747 115.961 186.429 118.821 186.429C121.681 186.429 124 188.747 124 191.607Z" fill="#1A1A1A"/>
<path d="M-124.571 222.679C-124.571 225.539 -126.89 227.857 -129.75 227.857C-132.61 227.857 -134.929 225.539 -134.929 222.679C-134.929 219.819 -132.61 217.5 -129.75 217.5C-126.89 217.5 -124.571 219.819 -124.571 222.679Z" fill="#1A1A1A"/>
<path d="M-93.5 222.679C-93.5 225.539 -95.8185 227.857 -98.6786 227.857C-101.539 227.857 -103.857 225.539 -103.857 222.679C-103.857 219.819 -101.539 217.5 -98.6786 217.5C-95.8185 217.5 -93.5 219.819 -93.5 222.679Z" fill="#1A1A1A"/>
<path d="M-62.4286 222.679C-62.4286 225.539 -64.7471 227.857 -67.6071 227.857C-70.4672 227.857 -72.7857 225.539 -72.7857 222.679C-72.7857 219.819 -70.4672 217.5 -67.6071 217.5C-64.7471 217.5 -62.4286 219.819 -62.4286 222.679Z" fill="#1A1A1A"/>
<path d="M-31.3571 222.679C-31.3571 225.539 -33.6757 227.857 -36.5357 227.857C-39.3958 227.857 -41.7143 225.539 -41.7143 222.679C-41.7143 219.819 -39.3958 217.5 -36.5357 217.5C-33.6757 217.5 -31.3571 219.819 -31.3571 222.679Z" fill="#1A1A1A"/>
<path d="M-0.285721 222.679C-0.285721 225.539 -2.60425 227.857 -5.46429 227.857C-8.32434 227.857 -10.6429 225.539 -10.6429 222.679C-10.6429 219.819 -8.32434 217.5 -5.46429 217.5C-2.60425 217.5 -0.285721 219.819 -0.285721 222.679Z" fill="#1A1A1A"/>
<path d="M30.7857 222.679C30.7857 225.539 28.4672 227.857 25.6071 227.857C22.7471 227.857 20.4286 225.539 20.4286 222.679C20.4286 219.819 22.7471 217.5 25.6071 217.5C28.4672 217.5 30.7857 219.819 30.7857 222.679Z" fill="#1A1A1A"/>
<path d="M61.8571 222.679C61.8571 225.539 59.5386 227.857 56.6786 227.857C53.8185 227.857 51.5 225.539 51.5 222.679C51.5 219.819 53.8185 217.5 56.6786 217.5C59.5386 217.5 61.8571 219.819 61.8571 222.679Z" fill="#1A1A1A"/>
<path d="M92.9286 222.679C92.9286 225.539 90.61 227.857 87.75 227.857C84.89 227.857 82.5714 225.539 82.5714 222.679C82.5714 219.819 84.89 217.5 87.75 217.5C90.61 217.5 92.9286 219.819 92.9286 222.679Z" fill="#1A1A1A"/>
<path d="M-93.5 253.75C-93.5 256.61 -95.8185 258.929 -98.6786 258.929C-101.539 258.929 -103.857 256.61 -103.857 253.75C-103.857 250.89 -101.539 248.571 -98.6786 248.571C-95.8185 248.571 -93.5 250.89 -93.5 253.75Z" fill="#1A1A1A"/>
<path d="M-62.4286 253.75C-62.4286 256.61 -64.7471 258.929 -67.6071 258.929C-70.4672 258.929 -72.7857 256.61 -72.7857 253.75C-72.7857 250.89 -70.4672 248.571 -67.6071 248.571C-64.7471 248.571 -62.4286 250.89 -62.4286 253.75Z" fill="#1A1A1A"/>
<path d="M-31.3571 253.75C-31.3571 256.61 -33.6757 258.929 -36.5357 258.929C-39.3958 258.929 -41.7143 256.61 -41.7143 253.75C-41.7143 250.89 -39.3958 248.571 -36.5357 248.571C-33.6757 248.571 -31.3571 250.89 -31.3571 253.75Z" fill="#1A1A1A"/>
<path d="M-0.285721 253.75C-0.285721 256.61 -2.60425 258.929 -5.46429 258.929C-8.32434 258.929 -10.6429 256.61 -10.6429 253.75C-10.6429 250.89 -8.32434 248.571 -5.46429 248.571C-2.60425 248.571 -0.285721 250.89 -0.285721 253.75Z" fill="#1A1A1A"/>
<path d="M30.7857 253.75C30.7857 256.61 28.4672 258.929 25.6071 258.929C22.7471 258.929 20.4286 256.61 20.4286 253.75C20.4286 250.89 22.7471 248.571 25.6071 248.571C28.4672 248.571 30.7857 250.89 30.7857 253.75Z" fill="#1A1A1A"/>
<path d="M61.8571 253.75C61.8571 256.61 59.5386 258.929 56.6786 258.929C53.8185 258.929 51.5 256.61 51.5 253.75C51.5 250.89 53.8185 248.571 56.6786 248.571C59.5386 248.571 61.8571 250.89 61.8571 253.75Z" fill="#1A1A1A"/>
<path d="M-62.4286 284.821C-62.4286 287.681 -64.7471 290 -67.6071 290C-70.4672 290 -72.7857 287.681 -72.7857 284.821C-72.7857 281.961 -70.4672 279.643 -67.6071 279.643C-64.7471 279.643 -62.4286 281.961 -62.4286 284.821Z" fill="#1A1A1A"/>
<path d="M-31.3571 284.821C-31.3571 287.681 -33.6757 290 -36.5357 290C-39.3958 290 -41.7143 287.681 -41.7143 284.821C-41.7143 281.961 -39.3958 279.643 -36.5357 279.643C-33.6757 279.643 -31.3571 281.961 -31.3571 284.821Z" fill="#1A1A1A"/>
<path d="M-0.285721 284.821C-0.285721 287.681 -2.60425 290 -5.46429 290C-8.32434 290 -10.6429 287.681 -10.6429 284.821C-10.6429 281.961 -8.32434 279.643 -5.46429 279.643C-2.60425 279.643 -0.285721 281.961 -0.285721 284.821Z" fill="#1A1A1A"/>
<path d="M30.7857 284.821C30.7857 287.681 28.4672 290 25.6071 290C22.7471 290 20.4286 287.681 20.4286 284.821C20.4286 281.961 22.7471 279.643 25.6071 279.643C28.4672 279.643 30.7857 281.961 30.7857 284.821Z" fill="#1A1A1A"/>
</g>
</svg>
